<svg width="24px" height="28px" xmlns="http://www.w3.org/2000/svg" xmlns:xlink="http://www.w3.org/1999/xlink" viewBox="0 0 107.74 105.49" xmlns:v="https://vecta.io/nano"><defs><filter id="A" filterUnits="userSpaceOnUse"><feOffset dx="2" dy="2"/><feGaussianBlur result="A" stdDeviation="1"/><feFlood flood-color="#e46525" flood-opacity=".2"/><feComposite in2="A" operator="in"/><feComposite in="SourceGraphic"/></filter><linearGradient id="B" x1="39.72" y1="32.35" x2="35.48" y2="4.42" gradientUnits="userSpaceOnUse"><stop offset="0" stop-color="#fed607"/><stop offset=".44" stop-color="#fec40e"/></linearGradient><linearGradient id="C" x1="44.86" y1="61.55" x2="48.99" y2="73.28" gradientUnits="userSpaceOnUse"><stop offset="0" stop-color="#f68b28"/><stop offset="1" stop-color="#e46525"/></linearGradient><linearGradient id="D" x1="88.79" y1="1.26" x2="64.99" y2="61.03" gradientUnits="userSpaceOnUse"><stop offset="0" stop-color="#f68b28"/><stop offset=".7" stop-color="#fec40e"/></linearGradient><linearGradient id="E" x1="25.75" y1="77.44" x2="-6.2" y2="4.85" gradientUnits="userSpaceOnUse"><stop offset="0" stop-color="#fed607"/><stop offset=".7" stop-color="#f68b28"/></linearGradient><linearGradient id="F" x1="109.85" y1="76.35" x2="75.29" y2="44.51" xlink:href="#C"/><linearGradient id="G" x1="89.37" y1="79.22" x2="74.8" y2="71.39" xlink:href="#B"/><linearGradient id="H" x1="78.9" y1="96.44" x2="79.23" y2="68.4" xlink:href="#E"/><linearGradient id="I" x1="84.7" y1="86.22" x2="96.68" y2="86.22" xlink:href="#C"/><linearGradient id="J" x1="94.99" y1="62.26" x2="113.46" y2="66.07" xlink:href="#D"/><linearGradient id="K" x1="100.55" y1="69.22" x2="110.55" y2="58.35" xlink:href="#C"/><linearGradient id="L" x1="100.26" y1="72.06" x2="101.13" y2="62.39" xlink:href="#C"/><linearGradient id="M" x1="54.23" y1="65.14" x2="72.26" y2="81" xlink:href="#D"/><linearGradient id="N" x1="57.92" y1="82.44" x2="63.95" y2="65.41" xlink:href="#C"/><linearGradient id="O" x1="70.67" y1="72.77" x2="65.54" y2="74.89" xlink:href="#C"/><linearGradient id="P" x1="85.18" y1="95.5" x2="96.69" y2="107.45" xlink:href="#D"/><linearGradient id="Q" x1="97.08" y1="112.72" x2="90.02" y2="100.22" xlink:href="#C"/></defs><g filter="url(#A)"><path d="M54.61 0l18.58 18.42-15.32 28.2-30.49 11.57-23.3-26.24 6.52-11.41L54.61 0z" fill="url(#B)"/><path d="M59.46 63.57l6.72-12.71-8.31-4.24-30.49 11.57-4.07 13.37 36.15-7.99z" fill="url(#C)"/><path d="M107.74 40.75l-13.85 1.63-18.09-3.42-9.62 11.9-8.31-4.24 15.32-28.2L54.61 0l18.9 9.62 24.45 4.4 9.78 26.73z" fill="url(#D)"/><path d="M4.08 31.95L0 41.89l23.31 29.67 4.07-13.37-23.3-26.24z" fill="url(#E)"/><path d="M107.74 40.75l-13.85 1.63-18.09-3.42-9.62 11.9-6.72 12.71 8.6 3.1h18.49l21.19-25.92z" fill="url(#F)"/><path d="M74.75 71.56l-2.03 5.57 11.98 7.66 6.6-5.54h5.38l-7.99-8.48-13.94.79z" fill="url(#G)"/><path d="M72.72 77.13V83l12.63 10.19-.65-8.4-11.98-7.66z" fill="url(#H)"/><path d="M85.35 93.19l7.91-6.97 3.42-1.31v-5.66H91.3l-6.6 5.54.65 8.4z" fill="url(#I)"/><path d="M96.68 63.83v3.59l5.62-1.14 3.08-6.68h-4.95l-3.75 4.23z" fill="url(#J)"/><path d="M105.38 59.6l1.32 6.68-2.2 3.02-2.2-3.02 3.08-6.68z" fill="url(#K)"/><path d="M104.5 69.3l-5.88.85-1.94-2.73 5.62-1.14 2.2 3.02z" fill="url(#L)"/><path d="M61.55 69.48l-4.88 2.33 3.29 3.2 4.1-.12 2.83-3.45-5.34-1.96z" fill="url(#M)"/><path d="M56.67 71.81l1.21 4.59 2.83 1.87 3.7-.03-.35-3.35-4.1.12-3.29-3.2z" fill="url(#N)"/><path d="M64.41 78.24l2.98-2.32-.5-4.48-2.83 3.45.35 3.35z" fill="url(#O)"/><path d="M89.72 96.48l-2.77 2.66v3.26l5.27.76 1.63-3.72-4.13-2.96z" fill="url(#P)"/><path d="M86.95 102.4l2.01 2.65 4.35.44 1.77-3.92-1.23-2.13-1.63 3.72-5.27-.76z" fill="url(#Q)"/><path d="M53.87,4.02c-1.36.22-41.13,18.91-41.13,18.91l-4.27,9.02,5.22,5.76L53.87,4.02Z" fill="#fed607"/></g></svg>